<svg xmlns="http://www.w3.org/2000/svg" version="1.1" xmlns:xlink="http://www.w3.org/1999/xlink" viewBox="0 0 200 200"><rect width="200" height="200" fill="url('#gradient')"></rect><defs><linearGradient id="gradient" gradientTransform="rotate(45 0.5 0.5)"><stop offset="0%" stop-color="#dee90b"></stop><stop offset="100%" stop-color="#d9e241"></stop></linearGradient></defs><g><g fill="#1b3855" transform="matrix(2.6260151018663627,0,0,2.6260151018663627,9.95194922286997,119.70812633808971)" stroke="#0e5278" stroke-width="0.2"><path d="M3.50-10.57L5.14-3.92L6.81-10.57L10.27-10.57L6.83 0L3.47 0L0.02-10.57L3.50-10.57ZM14.73-10.57L14.73 0L11.43 0L11.43-10.57L14.73-10.57ZM11.23-13.29L11.23-13.29Q11.23-13.99 11.74-14.44Q12.25-14.89 13.06-14.89Q13.87-14.89 14.38-14.44Q14.88-13.99 14.88-13.29Q14.88-12.59 14.38-12.14Q13.87-11.69 13.06-11.69Q12.25-11.69 11.74-12.14Q11.23-12.59 11.23-13.29ZM16.78-10.57L19.86-10.57L19.97-9.33Q21.09-10.76 22.99-10.76L22.99-10.76Q24.99-10.76 25.69-9.17L25.69-9.17Q26.77-10.76 28.80-10.76L28.80-10.76Q32.01-10.76 32.10-6.88L32.10-6.88L32.10 0L28.80 0L28.80-6.67Q28.80-7.48 28.53-7.85Q28.25-8.22 27.53-8.22L27.53-8.22Q26.55-8.22 26.07-7.35L26.07-7.35L26.08-7.22L26.08 0L22.78 0L22.78-6.65Q22.78-7.48 22.52-7.85Q22.26-8.22 21.51-8.22L21.51-8.22Q20.57-8.22 20.07-7.35L20.07-7.35L20.07 0L16.78 0L16.78-10.57ZM41.45-10.57L43.11-4.34L44.17-10.57L47.32-10.57L44.83 0L42.05 0L40.30-6.27L38.54 0L35.76 0L33.27-10.57L36.43-10.57L37.47-4.19L39.15-10.57L41.45-10.57ZM51.97-10.57L51.97 0L48.67 0L48.67-10.57L51.97-10.57ZM48.48-13.29L48.48-13.29Q48.48-13.99 48.98-14.44Q49.49-14.89 50.30-14.89Q51.11-14.89 51.62-14.44Q52.13-13.99 52.13-13.29Q52.13-12.59 51.62-12.14Q51.11-11.69 50.30-11.69Q49.49-11.69 48.98-12.14Q48.48-12.59 48.48-13.29ZM60.55 0L58.24-3.94L57.31-3.01L57.31 0L54.02 0L54.02-15.01L57.31-15.01L57.31-7.04L57.65-7.48L60.13-10.57L64.07-10.57L60.37-6.22L64.32 0L60.55 0ZM68.41-10.57L68.41 0L65.11 0L65.11-10.57L68.41-10.57ZM64.91-13.29L64.91-13.29Q64.91-13.99 65.42-14.44Q65.93-14.89 66.74-14.89Q67.55-14.89 68.06-14.44Q68.56-13.99 68.56-13.29Q68.56-12.59 68.06-12.14Q67.55-11.69 66.74-11.69Q65.93-11.69 65.42-12.14Q64.91-12.59 64.91-13.29Z"></path></g></g></svg>